<?xml version="1.0" encoding="utf-8"?>
<!-- Generator: Adobe Illustrator 16.0.3, SVG Export Plug-In . SVG Version: 6.00 Build 0)  -->
<!DOCTYPE svg PUBLIC "-//W3C//DTD SVG 1.1//EN" "http://www.w3.org/Graphics/SVG/1.1/DTD/svg11.dtd">
<svg version="1.1" id="Layer_1" xmlns="http://www.w3.org/2000/svg" xmlns:xlink="http://www.w3.org/1999/xlink" x="0px" y="0px"
	 width="1214.475px" height="792px" viewBox="0 0 1214.475 792" enable-background="new 0 0 1214.475 792" xml:space="preserve">
<g>
	<g>
		<path fill-rule="evenodd" clip-rule="evenodd" fill="#22205F" d="M1132.001,332.857c6.797-21.2,13.43-41.799,19.994-62.432
			c3.563-11.215,7.488-22.352,10.283-33.757c1.914-7.783,7.258-5.853,12.262-6.087c5.121-0.245,5.895,2.49,6.785,7.009
			c7.338,37.261,15.143,74.431,22.789,111.639c2.074,10.062,4.178,20.113,6.053,30.214c0.855,4.597,0.262,8.206-6.16,7.388
			c-6.971-0.896-15.613,2.774-20.613-1.637c-4.744-4.185-3.361-12.816-4.436-19.577c-3.111-19.662-6.953-39.209-10.686-59.739
			c-4.893,12.829-9.623,25.132-14.275,37.465c-5.131,13.605-10.811,27.061-14.98,40.958c-1.584,5.287-4.285,4.195-7.525,4.388
			c-3.602,0.206-5.689-0.052-7.266-4.708c-8.514-25.188-17.822-50.109-27.344-76.46c-4.771,10.2-4.818,20.306-6.793,29.871
			c-3.045,14.659-5.395,29.468-7.826,44.245c-0.574,3.514-2.217,5.101-5.66,5.109c-2.256,0.007-4.52,0.007-6.785,0.01
			c-18.58,0.008-18.424,0.044-14.773-17.587c9.131-44.208,18.207-88.427,26.996-132.699c0.902-4.523,2.822-6.654,6.879-5.708
			c3.807,0.89,8.936-3.722,11.295,4.366c9.02,30.902,19.025,61.527,28.734,92.23
			C1129.488,329.075,1130.712,330.576,1132.001,332.857z"/>
		<path fill-rule="evenodd" clip-rule="evenodd" fill="#22205F" d="M445.924,309.726c-1.693-25.512,5.49-48.108,24.451-65.604
			c21.052-19.43,46.61-19.582,71.862-11.243c23.074,7.613,35.373,25.811,39.426,49.39c3.342,19.469,4.02,39.004-1.986,58.083
			c-8.455,26.869-27.753,47.244-59.868,48.183c-8.552,0.251-17.189,1.191-25.804-1.022c-27.483-7.049-39.943-26.8-46.311-52.331
			C445.569,326.678,446.139,318.211,445.924,309.726z M554.882,307.047c-3.044-11.99-3.089-24.654-9.238-36.593
			c-9.548-18.542-46.754-22.712-59.101-2.652c-15.444,25.082-14.106,51.101-3.496,76.936c9.241,22.494,38.055,22.605,54.256,9.768
			C552.442,342.504,552.117,324.335,554.882,307.047z"/>
		<path fill-rule="evenodd" clip-rule="evenodd" fill="#22205F" d="M425.923,386.757c-6.594,0-12.843-0.936-18.69,0.19
			c-12.762,2.454-18.237-4.708-23.726-14.341c-9.068-15.915-18.914-31.441-29.243-46.593c-4.271-6.261-12.068-2.711-18.098-2.521
			c-5.221,0.166-2.615,5.573-2.667,8.508c-0.287,15.716-0.331,31.449-0.025,47.166c0.101,5.369-0.557,7.813-7.098,7.79
			c-20.167-0.071-20.167,0.281-20.167-19.725c0-42.676,0.214-85.35-0.202-128.021c-0.072-7.425,2.034-9.017,9.083-8.776
			c16.126,0.544,32.342-0.683,48.415,0.377c20.642,1.356,38.5,9.638,44.56,30.493c5.946,20.461-2.59,43.948-21.318,53.595
			c-6.389,3.293-3.49,5.599-1.314,8.863c12.775,19.145,25.595,38.259,38.318,57.439C424.744,382.692,425.099,384.6,425.923,386.757z
			 M333.364,276.966c0,22.256,2.197,24.818,19.396,20.834c3.41-0.792,6.709-1.345,10.163-1.743
			c9.478-1.088,16.65-9.065,16.79-20.163c0.104-8.382-3.66-14.977-13.306-16.462c-6.133-0.946-12.118-3.003-18.268-3.652
			c-11.701-1.245-14.773,1.825-14.775,13.503C333.364,271.847,333.364,274.41,333.364,276.966z"/>
		<path fill-rule="evenodd" clip-rule="evenodd" fill="#22205F" d="M765.978,308.204c0-23.445,0.234-46.899-0.15-70.346
			c-0.1-6.012,1.553-7.442,7.492-7.415c19.816,0.079,19.824-0.188,19.824,19.11c0,11.566,0.475,23.154-0.178,34.684
			c-0.408,7.093,2.145,8.426,8.662,8.213c14.857-0.488,29.746-0.507,44.605,0c6.857,0.24,9.559-1.015,9.195-8.678
			c-0.715-15.384,0-30.833-0.322-46.245c-0.111-5.276,1.17-7.028,6.82-7.078c20.455-0.204,20.455-0.447,20.455,19.437
			c0,42.728-0.201,85.452,0.186,128.175c0.066,7.258-1.762,9.08-8.992,8.89c-18.348-0.483-18.357-0.101-18.357-18.66
			c0-14.135-0.521-28.297,0.211-42.396c0.402-7.636-2.291-8.946-9.188-8.697c-14.525,0.525-29.098,0.521-43.631,0.004
			c-7.164-0.252-10.006,1.149-9.689,9.16c0.697,17.962,0.074,35.975,0.314,53.957c0.066,4.816-1.037,6.486-6.316,6.597
			c-20.941,0.434-20.941,0.662-20.941-19.921C765.978,347.401,765.978,327.802,765.978,308.204z"/>
		<path fill-rule="evenodd" clip-rule="evenodd" fill="#22205F" d="M261.588,292.035c0,16.049-0.021,32.102,0.005,48.155
			c0.033,20.208-8.89,35.353-27.797,42.584c-25.538,9.754-51.09,11.315-74.036-7.344c-9.012-7.324-14.446-16.977-14.508-28.747
			c-0.187-35.961,0.135-71.923-0.24-107.874c-0.07-6.811,1.729-8.513,8.496-8.384c18.833,0.368,18.841,0.033,18.841,19.11
			c0,27.291-0.997,54.624,0.325,81.852c1.003,20.693,6.719,27.656,22.647,30.313c26.967,4.5,38.532-8.716,38.958-30.549
			c0.592-30.492,0.46-61.001-0.064-91.492c-0.136-7.858,2.341-9.417,9.619-9.224c17.745,0.47,17.754,0.124,17.754,17.293
			C261.588,262.494,261.588,277.261,261.588,292.035z"/>
		<path fill-rule="evenodd" clip-rule="evenodd" fill="#22205F" d="M927,308.375c0-23.45,0.184-46.906-0.133-70.351
			c-0.072-5.691,1.049-7.664,7.316-7.585c29.086,0.372,58.184,0.271,87.271,0.059c4.945-0.036,6.486,1.195,6.568,6.341
			c0.326,18.828,0.561,18.824-18.152,18.824c-16.16,0-32.334,0.318-48.486-0.161c-6.189-0.184-7.787,1.734-7.35,7.54
			c0.518,6.71,0.611,13.531-0.018,20.222c-0.586,6.331,1.977,7.405,7.646,7.225c12.594-0.4,25.219,0.098,37.822-0.235
			c5.176-0.128,7.184,0.918,7.219,6.686c0.131,18.489,0.41,18.484-18.508,18.484c-9.371,0-18.756,0.226-28.121-0.092
			c-4.604-0.156-6.152,1.176-6.023,5.879c0.328,11.238,0.398,22.498-0.018,33.725c-0.215,5.525,1.57,6.965,6.998,6.883
			c19.715-0.314,39.438,0.032,59.16-0.223c5.334-0.067,7.934,0.433,7.889,7.008c-0.141,18.148,0.25,18.151-17.914,18.151
			c-24.568,0-49.135-0.25-73.703,0.157c-7.154,0.118-9.902-1.171-9.688-9.158C927.406,354.644,927,331.501,927,308.375z"/>
		<path fill-rule="evenodd" clip-rule="evenodd" fill="#22205F" d="M9.39,308.01c0-22.808,0.247-45.617-0.15-68.421
			c-0.118-6.701,0.875-9.366,8.671-9.21c27.463,0.571,54.95,0.388,82.422,0.098c5.989-0.06,8.302,1.037,8.188,7.695
			c-0.299,17.487,0.072,17.492-17.591,17.492c-15.839,0-31.685,0.227-47.516-0.124c-5.456-0.12-7.321,1.393-6.97,6.904
			c0.567,8.918-2.927,20.599,1.542,26.079c4.696,5.764,16.921,1.276,25.835,1.806c3.541,0.212,7.108,0.038,10.664,0.038
			c12.506,0,12.506,0,12.506,12.718c0,12.341,0,12.341-12.888,12.341c-10.022,0-20.057,0.323-30.058-0.12
			c-5.708-0.253-8.007,0.951-7.654,7.239c0.588,10.572,0.505,21.214,0.026,31.791c-0.268,5.832,1.217,7.667,7.381,7.52
			c19.061-0.443,38.145,0.103,57.209-0.313c6.009-0.13,7.541,1.473,7.493,7.43c-0.144,17.785,0.153,17.785-17.272,17.785
			c-24.568,0-49.144-0.29-73.701,0.184c-7.059,0.138-8.407-2.064-8.295-8.584C9.64,354.911,9.39,331.455,9.39,308.01z"/>
		<path fill-rule="evenodd" clip-rule="evenodd" fill="#22205F" d="M720.158,348.304c3.74,6.275,6.691,12.565,10.887,17.895
			c3.527,4.473,1.771,7.166-1.58,9.547c-10.607,7.509-22.219,12.836-35.498,12.864c-12.744,0.027-25.717,1.702-38.08-2.483
			c-24.551-8.317-38.055-26.697-42.952-50.927c-6.196-30.639-3.408-60.264,18.201-85.047c10.05-11.52,23.632-19.737,38.839-21.024
			c16.846-1.43,34.34-2.882,50.6,5.234c6.617,3.302,11.463,6.419,5.32,14.103c-0.373,0.461-0.428,1.153-0.66,1.72
			c-3.424,8.296-5.135,13.48-18.006,8.158c-33.486-13.835-61.819,7.162-65.729,41.559c-1.957,17.28,0.43,32.583,9.644,47.101
			c8.643,13.622,22.963,16.392,36.848,16.051C699.96,362.765,711.978,358.33,720.158,348.304z"/>
	</g>
</g>
<g>
	<path fill-rule="evenodd" clip-rule="evenodd" fill="#CC2036" d="M116.431,487.096c3.24-3.742,7.08-6.203,12.269-5.479
		c5.895,0.82,9.973,4.256,12.184,9.512c4.2,10.006,4.134,20.221,0.201,30.326c-1.188,3.049-3.303,5.555-5.931,7.555
		c-5.815,4.424-11.259,3.973-19.067-1.887c0,6.627-0.16,12.891,0.072,19.146c0.108,2.906-1.116,3.207-3.525,3.24
		c-2.525,0.035-3.523-0.561-3.508-3.322c0.106-19.828,0.042-39.662,0.077-59.494c0.006-1.828-0.847-4.098,2.618-4.225
		c3.017-0.111,4.254,0.836,4.009,3.797C115.813,486.451,116.105,486.662,116.431,487.096z M136.76,507.012
		c-0.05-4.418-0.218-8.473-1.997-12.217c-1.633-3.439-3.972-6.199-8.11-6.426c-4.081-0.219-6.595,2.432-8.136,5.654
		c-3.989,8.342-3.911,16.963-0.419,25.428c1.327,3.219,4.009,5.492,7.777,5.619c3.79,0.123,6.249-2.113,8.094-5.15
		C136.447,515.83,136.652,511.25,136.76,507.012z"/>
	<path fill-rule="evenodd" clip-rule="evenodd" fill="#CC2036" d="M929.232,526.438c-10.457,10.803-21.861,3.625-25.5-5.551
		c-3.305-8.33-3.402-16.908-1.041-25.406c3.865-13.928,14.459-17.566,26.242-8.816c0-6.576,0.146-12.861-0.07-19.131
		c-0.094-2.82,0.986-3.305,3.48-3.283c2.443,0.023,3.568,0.436,3.553,3.281c-0.113,19.689-0.035,39.387-0.111,59.086
		c-0.002,1.682,1.223,4.219-2.373,4.383C930.451,531.129,928.728,530.438,929.232,526.438z M929.656,507.605
		c-0.352-4.512-0.475-9-2.479-13.086c-3.404-6.949-10.84-8.031-15.275-2.285c-4.854,6.301-4.818,22.594,0.064,28.865
		c4.287,5.502,10.439,5.326,14.438-0.418C929.164,516.709,929.257,512.088,929.656,507.605z"/>
	<path fill-rule="evenodd" clip-rule="evenodd" fill="#CC2036" d="M717.734,508.91c-4.174,0.002-8.361,0.105-12.533-0.035
		c-2.109-0.07-2.619,0.791-2.162,2.613c0.521,2.082,0.842,4.268,1.699,6.211c1.926,4.342,5.084,7.332,10.148,7.379
		c4.834,0.045,7.6-2.941,9.449-6.992c0.734-1.605,1.127-3.121,3.627-2.758c4.477,0.648,4.852,1.018,3.189,5.297
		c-2.762,7.119-7.854,11.109-15.592,11.361c-7.631,0.252-13.566-2.996-16.602-9.938c-4.535-10.371-4.436-21.018,0.57-31.254
		c2.959-6.053,8.254-9.225,15.016-9.254c6.664-0.033,11.498,3.389,14.701,9.1c2.783,4.959,3.375,10.432,3.463,16.016
		c0.029,1.826-0.785,2.295-2.436,2.273C726.095,508.863,721.917,508.906,717.734,508.91z M714.33,502.008
		c2.699,0,5.402-0.117,8.09,0.031c2.525,0.141,2.865-0.902,2.473-3.148c-1.037-5.904-4.762-9.994-9.721-10.33
		c-5.172-0.35-9.639,3.322-11.244,9.146c-0.783,2.82-0.744,4.775,3.129,4.348C709.453,501.793,711.902,502.01,714.33,502.008z"/>
	<path fill-rule="evenodd" clip-rule="evenodd" fill="#CC2036" d="M642.189,487.279c4.27-3.898,8.313-6.369,13.529-5.689
		c6.574,0.867,10.512,4.506,11.395,11.215c1.566,11.953,0.441,23.992,0.723,35.988c0.074,3.033-2.258,1.939-3.781,2.119
		c-1.945,0.225-3.322-0.047-3.285-2.676c0.129-8.498,0.057-17.006,0.039-25.506c-0.004-1.889,0.012-3.791-0.193-5.662
		c-0.539-4.816-2.988-7.592-7.037-8.172c-3.748-0.529-8.14,2.008-9.75,5.83c-1.274,3.018-1.639,6.24-1.639,9.504
		c0,7.697-0.107,15.393,0.062,23.078c0.059,2.744-0.605,3.768-3.547,3.727c-2.737-0.035-3.341-0.979-3.331-3.521
		c0.088-19.973,0.103-39.943-0.01-59.918c-0.018-2.736,0.897-3.35,3.455-3.355c2.592-0.008,3.512,0.668,3.433,3.375
		C642.063,473.896,642.189,480.188,642.189,487.279z"/>
	<path fill-rule="evenodd" clip-rule="evenodd" fill="#CC2036" d="M455.683,506.58c-0.08,4.875-0.513,9.707-2.447,14.238
		c-2.963,6.936-8.107,10.98-15.813,11.162c-7.708,0.182-13.328-3.539-16.286-10.426c-4.099-9.563-4.034-19.494-0.209-29.127
		c2.713-6.838,8.173-10.717,15.622-10.875c7.43-0.156,12.779,3.547,16.149,10.121C455.103,496.361,455.624,501.424,455.683,506.58z
		 M448.481,506.598c0.009-3.516-0.255-7.008-1.618-10.285c-1.821-4.371-4.676-7.605-9.793-7.752
		c-5.032-0.145-8.063,2.955-9.682,7.189c-2.833,7.42-2.827,15.049,0.159,22.432c1.661,4.1,4.807,6.891,9.545,6.889
		c4.784-0.01,7.596-3.086,9.459-7.041C448.247,514.449,448.546,510.527,448.481,506.598z"/>
	<path fill-rule="evenodd" clip-rule="evenodd" fill="#CC2036" d="M1190.99,519.064c3.438-11.313,6.732-22.213,10.059-33.111
		c0.939-3.08,3.727-4.43,6.727-3.328c2.217,0.811,0.744,2.316,0.445,3.322c-3.357,11.352-6.791,22.689-10.289,34.002
		c-2.426,7.842-4.4,15.844-7.844,23.332c-2.627,5.721-6.441,7.877-11.361,6.979c-4.127-0.756-2.684-4.061-2.961-6.42
		c-0.357-3.143,2.129-1.547,3.369-1.537c2.926,0.012,4.924-1.17,5.971-3.883c1.705-4.408,2.754-8.586,1.027-13.576
		c-4.359-12.582-8.063-25.4-11.895-38.162c-0.354-1.203-2.42-3.377,0.104-3.875c2.162-0.428,5.443-1.873,6.617,2.244
		c2.883,10.092,5.934,20.139,8.918,30.199C1190.216,516.4,1190.55,517.553,1190.99,519.064z"/>
	<path fill-rule="evenodd" clip-rule="evenodd" fill="#CC2036" d="M292.618,532.008c-8.893,0.07-14.333-4.148-16.31-12.637
		c-0.317-1.371-1.32-3.17,1.267-3.195c1.873-0.023,4.285-2.66,5.543,1.303c2.057,6.457,7.083,9.057,13.137,7.176
		c3.268-1.018,5.308-3.109,5.521-6.674c0.209-3.498-1.98-5.043-4.887-6.045c-4.072-1.408-8.202-2.674-12.176-4.324
		c-5.726-2.379-8.348-7.307-7.68-13.734c0.64-6.09,4.286-10.355,10.05-11.748c9.573-2.314,17.733,1.664,19.824,9.725
		c0.366,1.436,1.454,3.494-1.187,3.773c-1.977,0.205-4.485,2.391-5.774-1.693c-1.732-5.518-9.525-7.357-14.094-3.742
		c-3.223,2.549-2.848,7.158,0.988,8.887c3.548,1.594,7.338,2.656,11.017,3.961c9.044,3.201,12.267,7.963,10.947,16.201
		C307.531,527.199,301.518,531.945,292.618,532.008z"/>
	<path fill-rule="evenodd" clip-rule="evenodd" fill="#CC2036" d="M1044.539,532.008c-9.42,0.055-14.928-4.236-16.826-12.672
		c-0.313-1.395-1.207-3.188,1.363-3.164c1.854,0.016,4.213-2.727,5.463,1.359c2.045,6.686,7.781,9.273,13.934,6.83
		c2.93-1.166,4.6-3.287,4.721-6.428c0.119-3.156-1.691-4.926-4.563-5.875c-3.705-1.227-7.43-2.432-11.064-3.838
		c-7.193-2.779-9.885-7.424-9-15.205c0.68-6.014,5.045-10.119,11.982-11.262c8.643-1.43,15.98,2.736,17.773,10.164
		c0.35,1.447,1.301,3.563-1.313,3.75c-1.842,0.131-4.25,2.363-5.551-1.412c-1.932-5.588-8.561-7.617-13.6-4.498
		c-1.693,1.053-2.748,2.547-2.746,4.656c0.004,2.297,1.102,3.945,3.158,4.723c3.9,1.49,7.885,2.748,11.811,4.166
		c8.203,2.955,11.047,7.361,10.137,15.574c-0.797,7.168-6.039,12.1-13.809,12.984
		C1045.611,531.951,1044.802,531.986,1044.539,532.008z"/>
	<path fill-rule="evenodd" clip-rule="evenodd" fill="#CC2036" d="M847.988,487.883c3.889-4.74,8.412-7.203,14.326-6.078
		c6.279,1.201,10.049,5.033,10.635,11.514c1.055,11.707,0.25,23.461,0.484,35.188c0.07,3.25-2.248,2.268-3.938,2.406
		c-1.756,0.146-3.059,0.061-3.018-2.459c0.148-8.906,0.064-17.813,0.047-26.715c-0.004-1.617,0-3.252-0.229-4.844
		c-0.701-4.848-3.145-7.508-7.213-8.023c-4.049-0.516-8.127,2.105-9.771,6.328c-1.137,2.936-1.43,6.008-1.42,9.135
		c0.018,7.689-0.059,15.383,0.041,23.074c0.029,2.34-0.193,3.732-3.17,3.609c-2.566-0.105-3.859-0.416-3.824-3.486
		c0.156-13.758,0.068-27.525,0.063-41.289c0-1.9-0.352-3.773,2.697-3.746c2.561,0.025,4.258,0.352,3.838,3.445
		C847.476,486.404,847.748,486.914,847.988,487.883z"/>
	<path fill-rule="evenodd" clip-rule="evenodd" fill="#CC2036" d="M53.075,488.396c4.169-5.406,8.937-7.85,15.179-6.49
		c5.445,1.189,8.699,4.523,9.838,9.99c1.225,5.889,0.59,11.842,0.688,17.766c0.103,6.205-0.101,12.426,0.078,18.625
		c0.077,2.689-1.342,2.725-3.261,2.654c-1.875-0.064-3.778,0.4-3.728-2.676c0.14-8.502,0.066-17.006,0.028-25.512
		c-0.008-2.021-0.147-4.043-0.337-6.053c-0.377-4.051-2.367-6.826-6.495-7.717c-3.709-0.799-7.876,1.299-9.802,4.914
		c-1.845,3.465-1.929,7.271-1.967,11.045c-0.073,7.559-0.129,15.119,0.032,22.676c0.06,2.73-0.93,3.412-3.502,3.383
		c-2.443-0.029-3.543-0.428-3.511-3.281c0.152-13.766,0.108-27.541,0.033-41.305c-0.014-2.432,0.031-3.959,3.289-3.971
		c3.278-0.018,3.492,1.533,3.247,3.947C52.842,486.787,52.951,487.195,53.075,488.396z"/>
	<path fill-rule="evenodd" clip-rule="evenodd" fill="#CC2036" d="M200.126,524.844c-2.738,3.396-5.213,5.846-8.806,6.75
		c-8.265,2.086-16.015-2.68-16.565-11.367c-0.75-11.818-0.364-23.713-0.45-35.572c-0.023-3.025,2.322-1.871,3.828-2.076
		c1.895-0.252,2.989,0.283,2.963,2.586c-0.101,8.631-0.058,17.262-0.023,25.893c0.008,1.881,0.087,3.779,0.344,5.641
		c0.682,4.906,3.125,7.553,7.15,7.936c4.343,0.42,8.555-2.297,10.049-6.57c1.267-3.621,1.263-7.43,1.305-11.191
		c0.091-6.877,0.14-13.756-0.023-20.631c-0.063-2.719,0.618-3.75,3.555-3.789c3.254-0.041,3.318,1.582,3.306,4.006
		c-0.077,13.49-0.052,26.977-0.023,40.459c0.006,2.246,0.287,4.107-3.141,4.137c-3.273,0.029-3.498-1.494-3.252-3.912
		C200.393,526.652,200.258,526.145,200.126,524.844z"/>
	<path fill-rule="evenodd" clip-rule="evenodd" fill="#CC2036" d="M992.695,524.807c-3.607,4.781-7.564,7.488-13.066,7.184
		c-7.066-0.387-12.08-4.822-12.416-12.422c-0.51-11.584-0.232-23.207-0.32-34.809c-0.025-3.018,2.203-1.994,3.742-2.182
		c1.906-0.223,2.943,0.275,2.926,2.596c-0.076,9.176,0.035,18.348,0.1,27.523c0.01,1.213,0.082,2.432,0.246,3.627
		c0.738,5.297,3.045,7.916,7.254,8.318c4.518,0.434,8.699-2.412,10.16-6.994c1.34-4.18,1.088-8.543,1.193-12.84
		c0.158-6.068,0.078-12.146,0.023-18.217c-0.021-2.271-0.24-4.152,3.176-4.135c3.195,0.012,3.377,1.492,3.363,3.967
		c-0.074,13.498-0.035,26.992-0.033,40.488c0,2.178,0.404,4.137-3.143,4.146c-3.713,0.006-2.857-2.209-2.951-4.213
		C992.931,526.455,992.855,526.063,992.695,524.807z"/>
	<path fill-rule="evenodd" clip-rule="evenodd" fill="#CC2036" d="M245.349,466.424c0,4.43,0.122,8.555-0.042,12.668
		c-0.105,2.58,0.704,3.832,3.408,3.475c2.572-0.34,3.512,0.658,3.475,3.375c-0.033,2.58-0.995,3.398-3.337,3.111
		c-2.531-0.316-3.601,0.592-3.556,3.334c0.145,8.625,0.048,17.252,0.062,25.875c0.01,3.119,0.57,5.602,4.674,5.414
		c3.834-0.174,2.045,3.354,2.825,5.121c0.878,1.988-0.889,2.404-2.432,2.674c-7.15,1.281-11.621-2.045-11.828-9.41
		c-0.28-9.828-0.134-19.676-0.13-29.514c0.004-1.988,0.164-3.834-2.788-3.535c-2.711,0.275-1.976-1.861-2.079-3.338
		c-0.122-1.695-0.158-3.387,2.341-3.102c2.332,0.264,2.673-1.084,2.525-2.957c-0.083-1.072,0.174-2.191-0.042-3.225
		C237.3,471.037,240.478,468.574,245.349,466.424z"/>
	<path fill-rule="evenodd" clip-rule="evenodd" fill="#CC2036" d="M603.374,531.604c-6.542-0.063-9.611-2.883-9.796-9.344
		c-0.267-9.563-0.135-19.133-0.153-28.701c-0.006-2.373,0.653-4.928-3.389-4.656c-2.377,0.162-1.301-2.174-1.433-3.434
		c-0.124-1.238-0.457-3.061,1.696-2.836c3.412,0.357,3.152-1.77,3.144-4.027c-0.013-4.176-1.037-8.578,4.222-11.033
		c2.554-1.188,2.672-0.504,2.653,1.613c-0.032,3.234,0.145,6.479-0.05,9.703c-0.164,2.766,0.735,4.076,3.613,3.684
		c2.417-0.328,3.304,0.652,3.261,3.17c-0.039,2.332-0.502,3.703-3.123,3.301c-3.17-0.482-3.814,1.094-3.762,3.949
		c0.154,8.354,0.061,16.711,0.061,25.07c0,3.283,0.566,5.736,4.882,5.656c3.529-0.064,1.919,3.434,2.662,5.271
		c0.741,1.836-0.907,2.215-2.276,2.438C604.663,531.582,603.71,531.58,603.374,531.604z"/>
	<path fill-rule="evenodd" clip-rule="evenodd" fill="#CC2036" d="M381.898,509.932c0-5.803-0.107-11.607,0.052-17.402
		c0.066-2.498-0.479-3.881-3.273-3.498c-2.711,0.373-2.551-1.461-2.622-3.316c-0.075-2.076,0.321-3.494,2.814-3.137
		c2.61,0.375,3.323-0.9,3.056-3.275c-0.149-1.33-0.056-2.695-0.015-4.041c0.271-9.166,5.758-13.395,14.78-11.695
		c2.946,0.555,2.409,2.361,2.109,4.189c-0.276,1.697,0.14,3.709-3.048,3.408c-5.497-0.521-9.349,5.639-6.775,10.42
		c0.93,1.723,2.666,0.949,4.01,0.93c2.367-0.039,3.657,0.307,3.61,3.254c-0.033,2.775-1.032,3.68-3.516,3.262
		c-3.783-0.643-4.421,1.18-4.363,4.547c0.186,11.193,0.008,22.395,0.114,33.592c0.023,2.584-0.385,3.873-3.456,3.867
		c-2.91-0.012-3.633-0.926-3.537-3.701C382.041,521.539,381.898,515.732,381.898,509.932z"/>
	<path fill-rule="evenodd" clip-rule="evenodd" fill="#CC2036" d="M1098.318,466.342c0,4.66,0.127,8.832-0.049,12.986
		c-0.1,2.402,0.527,3.568,3.107,3.256c2.309-0.287,3.725,0.154,3.674,3.164c-0.047,2.789-1.051,3.633-3.551,3.301
		c-2.408-0.316-3.299,0.537-3.236,3.111c0.188,8.637,0.146,17.273,0.152,25.91c0,3.344,0.639,5.711,4.916,5.652
		c3.559-0.051,1.893,3.457,2.656,5.285c0.809,1.924-1.002,2.141-2.285,2.416c-7.063,1.51-11.807-2.01-11.936-9.188
		c-0.176-9.846-0.078-19.705-0.059-29.555c0.006-2.004,0.141-3.863-2.785-3.668c-2.682,0.191-2.014-1.904-2.074-3.395
		c-0.059-1.469-0.293-3.209,2.051-3.023c2.461,0.189,3-1.135,2.807-3.229c-0.086-0.938-0.016-1.891-0.016-2.834
		C1091.697,470.17,1091.697,470.17,1098.318,466.342z"/>
	<path fill-rule="evenodd" clip-rule="evenodd" fill="#CC2036" d="M17.211,497.719c0,9.699-0.088,19.4,0.053,29.104
		c0.042,2.877-0.309,4.279-3.809,4.248c-3.325-0.033-3.603-1.346-3.591-4.061c0.094-19.535,0.102-39.074-0.004-58.609
		c-0.016-2.891,0.352-4.16,3.807-4.23c3.864-0.078,3.589,1.875,3.573,4.441C17.17,478.314,17.211,488.018,17.211,497.719z"/>
	<path fill-rule="evenodd" clip-rule="evenodd" fill="#CC2036" d="M490.538,487.514c1.479-0.756,1.816-2.34,2.773-3.404
		c2.831-3.152,8.013-3.609,10.927-0.656c2.369,2.4-0.22,4.729-0.664,7.043c-0.445,2.301-1.91,0.498-2.765,0.27
		c-3.969-1.074-7.189,0.445-8.563,4.506c-1.216,3.592-1.598,7.365-1.604,11.16c-0.019,7.148-0.168,14.305,0.067,21.445
		c0.104,3.131-1.531,2.979-3.718,3.107c-2.548,0.15-3.177-0.803-3.162-3.24c0.103-13.752,0.051-27.506,0.051-41.273
		c-0.004-1.98-0.513-3.967,2.821-4.01c3.127-0.039,3.647,1.371,3.454,3.881C490.127,486.693,490.383,487.066,490.538,487.514z"/>
	<path fill-rule="evenodd" clip-rule="evenodd" fill="#CC2036" d="M1137.992,487.324c1.428-0.555,1.662-1.887,2.402-2.783
		c2.916-3.52,7.779-4.158,11.172-1.178c2.68,2.357-0.074,4.693-0.498,6.969c-0.469,2.518-2.096,0.572-3.094,0.322
		c-3.643-0.914-6.719,0.475-8.098,4.129c-1.242,3.293-1.709,6.779-1.711,10.309c-0.004,7.416-0.121,14.84,0.061,22.248
		c0.068,2.795-0.691,3.701-3.576,3.686c-2.801-0.012-3.305-1.063-3.291-3.551c0.098-13.752,0.051-27.506,0.045-41.258
		c-0.004-1.896-0.375-3.795,2.686-3.719c2.408,0.064,3.994,0.385,3.578,3.287C1137.597,486.252,1137.863,486.764,1137.992,487.324z"
		/>
	<path fill-rule="evenodd" clip-rule="evenodd" fill="#CC2036" d="M809,507.066c0,7.008-0.164,14.02,0.076,21.018
		c0.104,2.969-1.455,2.869-3.445,2.859c-1.947-0.002-3.621,0.24-3.594-2.771c0.135-14.145,0.125-28.295,0.006-42.439
		c-0.023-2.961,1.432-3.182,3.756-3.234c2.369-0.047,3.328,0.539,3.26,3.146C808.882,492.781,809,499.928,809,507.066z"/>
	<path fill-rule="evenodd" clip-rule="evenodd" fill="#CC2036" d="M809,469.354c-0.088,2.244,0.85,4.66-3.271,4.729
		c-4.635,0.07-3.578-2.771-3.613-5.256c-0.037-2.297-0.727-4.564,3.338-4.668C810.21,464.045,808.812,466.98,809,469.354z"/>
</g>
</svg>
