<?xml version="1.0" encoding="utf-8"?>
<!-- Generator: Adobe Illustrator 16.0.3, SVG Export Plug-In . SVG Version: 6.00 Build 0)  -->
<!DOCTYPE svg PUBLIC "-//W3C//DTD SVG 1.1//EN" "http://www.w3.org/Graphics/SVG/1.1/DTD/svg11.dtd">
<svg version="1.1" id="Layer_1" xmlns="http://www.w3.org/2000/svg" xmlns:xlink="http://www.w3.org/1999/xlink" x="0px" y="0px"
	 width="1325.902px" height="791.63px" viewBox="0 0 1325.902 791.63" enable-background="new 0 0 1325.902 791.63"
	 xml:space="preserve">
<g>
	<g>
		<g>
			<path fill-rule="evenodd" clip-rule="evenodd" fill="#22205F" d="M1153.882,360.659c6.424-20.043,12.697-39.521,18.903-59.027
				c3.369-10.604,7.079-21.132,9.722-31.916c1.808-7.359,6.863-5.533,11.591-5.755c4.845-0.231,5.573,2.355,6.416,6.627
				c6.939,35.229,14.32,70.371,21.55,105.549c1.957,9.512,3.95,19.017,5.723,28.565c0.808,4.351,0.244,7.762-5.827,6.984
				c-6.592-0.846-14.76,2.624-19.49-1.544c-4.483-3.958-3.176-12.118-4.194-18.512c-2.938-18.588-6.573-37.069-10.101-56.478
				c-4.623,12.127-9.097,23.759-13.495,35.42c-4.852,12.862-10.225,25.584-14.162,38.722c-1.501,4.999-4.053,3.966-7.117,4.148
				c-3.405,0.196-5.378-0.047-6.871-4.449c-8.046-23.814-16.847-47.377-25.851-72.291c-4.511,9.645-4.554,19.199-6.423,28.242
				c-2.879,13.859-5.1,27.861-7.397,41.833c-0.544,3.321-2.099,4.821-5.354,4.83c-2.132,0.006-4.271,0.006-6.415,0.007
				c-17.565,0.011-17.418,0.042-13.969-16.625c8.635-41.797,17.217-83.605,25.526-125.461c0.853-4.277,2.668-6.291,6.503-5.396
				c3.598,0.841,8.45-3.519,10.677,4.128c8.532,29.217,17.99,58.173,27.169,87.2
				C1151.505,357.083,1152.664,358.501,1153.882,360.659z"/>
			<path fill-rule="evenodd" clip-rule="evenodd" fill="#22205F" d="M505.228,338.788c-1.603-24.121,5.189-45.483,23.116-62.024
				c19.903-18.37,44.067-18.513,67.943-10.629c21.814,7.198,33.442,24.402,37.274,46.695c3.159,18.409,3.8,36.876-1.877,54.916
				c-7.994,25.403-26.239,44.666-56.604,45.553c-8.085,0.237-16.252,1.126-24.396-0.966c-25.985-6.665-37.765-25.337-43.784-49.476
				C504.89,354.817,505.43,346.811,505.228,338.788z M608.242,336.255c-2.879-11.336-2.921-23.309-8.734-34.597
				c-9.029-17.532-44.205-21.474-55.878-2.507c-14.601,23.714-13.336,48.313-3.305,72.74c8.737,21.266,35.981,21.37,51.295,9.233
				C605.934,369.778,605.628,352.601,608.242,336.255z"/>
			<path fill-rule="evenodd" clip-rule="evenodd" fill="#22205F" d="M486.316,411.616c-6.233,0-12.143-0.881-17.67,0.184
				c-12.066,2.317-17.244-4.454-22.432-13.562c-8.574-15.045-17.882-29.725-27.648-44.051c-4.039-5.919-11.409-2.562-17.111-2.383
				c-4.936,0.157-2.472,5.269-2.521,8.043c-0.271,14.859-0.313,29.732-0.023,44.593c0.095,5.077-0.527,7.388-6.711,7.365
				c-19.068-0.065-19.068,0.266-19.068-18.649c0-40.348,0.203-80.695-0.19-121.038c-0.068-7.02,1.923-8.525,8.588-8.297
				c15.247,0.514,30.578-0.646,45.775,0.356c19.515,1.283,36.399,9.112,42.129,28.83c5.622,19.345-2.45,41.551-20.155,50.671
				c-6.041,3.115-3.3,5.295-1.244,8.381c12.079,18.102,24.199,36.171,36.228,54.306
				C485.202,407.773,485.538,409.578,486.316,411.616z M398.806,307.815c0,21.042,2.078,23.465,18.338,19.698
				c3.225-0.75,6.344-1.272,9.608-1.647c8.962-1.031,15.742-8.574,15.874-19.064c0.099-7.925-3.46-14.16-12.579-15.564
				c-5.799-0.894-11.457-2.838-17.272-3.452c-11.063-1.177-13.967,1.726-13.969,12.766
				C398.806,302.976,398.806,305.399,398.806,307.815z"/>
			<path fill-rule="evenodd" clip-rule="evenodd" fill="#22205F" d="M807.824,337.351c0-22.168,0.22-44.342-0.141-66.509
				c-0.097-5.685,1.466-7.037,7.082-7.011c18.735,0.074,18.743-0.178,18.743,18.068c0,10.936,0.447,21.892-0.167,32.791
				c-0.387,6.708,2.026,7.966,8.188,7.766c14.047-0.461,28.124-0.479,42.171,0c6.487,0.227,9.039-0.958,8.696-8.205
				c-0.674-14.545,0-29.151-0.308-43.723c-0.104-4.987,1.107-6.645,6.449-6.692c19.34-0.191,19.34-0.422,19.34,18.377
				c0,40.396-0.192,80.79,0.175,121.183c0.062,6.862-1.667,8.587-8.502,8.406c-17.348-0.455-17.357-0.098-17.357-17.644
				c0-13.364-0.49-26.753,0.202-40.083c0.378-7.221-2.167-8.458-8.688-8.224c-13.732,0.497-27.51,0.494-41.251,0.004
				c-6.774-0.238-9.459,1.086-9.161,8.662c0.658,16.982,0.071,34.011,0.297,51.016c0.062,4.553-0.981,6.128-5.973,6.233
				c-19.797,0.408-19.797,0.626-19.797-18.835C807.824,374.409,807.824,355.878,807.824,337.351z"/>
			<path fill-rule="evenodd" clip-rule="evenodd" fill="#22205F" d="M330.946,322.064c0,15.173-0.021,30.35,0.003,45.527
				c0.031,19.106-8.404,33.424-26.281,40.26c-24.144,9.224-48.302,10.696-69.996-6.939c-8.521-6.927-13.659-16.054-13.717-27.182
				c-0.175-33.999,0.128-68-0.227-101.989c-0.065-6.44,1.636-8.048,8.034-7.928c17.806,0.349,17.813,0.032,17.813,18.067
				c0,25.803-0.943,51.646,0.307,77.387c0.949,19.563,6.353,26.148,21.412,28.66c25.496,4.255,36.431-8.24,36.832-28.884
				c0.562-28.825,0.435-57.672-0.06-86.501c-0.127-7.428,2.214-8.903,9.095-8.72c16.776,0.444,16.786,0.118,16.786,16.351
				C330.946,294.132,330.946,308.094,330.946,322.064z"/>
			<path fill-rule="evenodd" clip-rule="evenodd" fill="#22205F" d="M960.061,337.512c0-22.172,0.175-44.347-0.122-66.513
				c-0.072-5.381,0.99-7.247,6.913-7.172c27.502,0.352,55.01,0.257,82.513,0.056c4.677-0.034,6.133,1.13,6.212,5.995
				c0.308,17.802,0.525,17.798-17.164,17.798c-15.278,0-30.573,0.301-45.84-0.152c-5.855-0.174-7.363,1.639-6.952,7.129
				c0.493,6.344,0.582,12.792-0.015,19.119c-0.554,5.985,1.869,7.001,7.231,6.83c11.907-0.377,23.842,0.093,35.758-0.222
				c4.896-0.123,6.792,0.869,6.825,6.322c0.124,17.48,0.388,17.475-17.497,17.475c-8.861,0-17.734,0.214-26.589-0.086
				c-4.352-0.147-5.816,1.112-5.694,5.56c0.307,10.625,0.377,21.268-0.019,31.884c-0.201,5.223,1.485,6.583,6.618,6.506
				c18.638-0.296,37.284,0.03,55.932-0.21c5.045-0.064,7.503,0.409,7.458,6.626c-0.131,17.158,0.236,17.159-16.934,17.159
				c-23.23,0-46.456-0.233-69.684,0.15c-6.765,0.114-9.363-1.107-9.161-8.658C960.446,381.255,960.061,359.376,960.061,337.512z"/>
			<path fill-rule="evenodd" clip-rule="evenodd" fill="#22205F" d="M92.503,337.166c0-21.563,0.233-43.129-0.142-64.689
				c-0.112-6.335,0.827-8.856,8.197-8.708c25.966,0.541,51.953,0.367,77.928,0.092c5.663-0.057,7.849,0.98,7.742,7.276
				c-0.283,16.533,0.067,16.538-16.633,16.538c-14.975,0-29.957,0.214-44.924-0.118c-5.158-0.113-6.921,1.317-6.589,6.527
				c0.536,8.432-2.767,19.475,1.458,24.654c4.441,5.452,15.997,1.209,24.425,1.709c3.348,0.201,6.721,0.035,10.082,0.035
				c11.825,0,11.825,0,11.825,12.025c0,11.667,0,11.667-12.186,11.667c-9.476,0-18.963,0.307-28.418-0.114
				c-5.396-0.239-7.571,0.899-7.237,6.845c0.557,9.997,0.477,20.059,0.024,30.059c-0.252,5.513,1.151,7.249,6.978,7.108
				c18.021-0.417,36.065,0.098,54.089-0.297c5.682-0.121,7.13,1.394,7.084,7.025c-0.135,16.813,0.146,16.813-16.329,16.813
				c-23.228,0-46.463-0.27-69.682,0.176c-6.673,0.132-7.948-1.953-7.841-8.117C92.739,381.509,92.503,359.332,92.503,337.166z"/>
			<path fill-rule="evenodd" clip-rule="evenodd" fill="#22205F" d="M764.5,375.263c3.538,5.934,6.329,11.879,10.296,16.919
				c3.333,4.228,1.674,6.774-1.493,9.023c-10.03,7.097-21.008,12.137-33.565,12.165c-12.047,0.026-24.314,1.604-36.003-2.35
				c-23.208-7.865-35.977-25.24-40.607-48.148c-5.859-28.967-3.222-56.977,17.207-80.408c9.501-10.892,22.343-18.661,36.721-19.877
				c15.925-1.352,32.467-2.725,47.84,4.949c6.257,3.122,10.837,6.069,5.029,13.333c-0.352,0.436-0.404,1.091-0.622,1.626
				c-3.24,7.843-4.855,12.745-17.024,7.713c-31.66-13.08-58.449,6.771-62.145,39.292c-1.851,16.337,0.405,30.808,9.118,44.533
				c8.171,12.877,21.709,15.497,34.837,15.175C745.409,388.935,756.77,384.742,764.5,375.263z"/>
		</g>
	</g>
	<g>
		<g>
			<path fill-rule="evenodd" clip-rule="evenodd" fill="#CC2036" d="M281.339,518.078c0-6.385-0.069-12.771,0.048-19.157
				c0.032-1.671-0.178-5.423,1.519-4.499c7.878,4.269,13.874-4.263,21.419-2.572c4.259,0.952,4.959,5.133,8.146,6.65
				c1.422-4.623,5.349-5.726,9.139-6.341c9.669-1.56,15.061,3.178,15.236,13.358c0.191,10.857,0.089,21.717,0.009,32.576
				c-0.02,2.594,1.096,5.87-3.61,5.921c-4.68,0.051-3.715-3.14-3.733-5.808c-0.064-8.623,0.167-17.249-0.097-25.866
				c-0.162-5.25-1.149-11.563-6.966-12.095c-5.154-0.479-7.004,4.07-8.311,9.926c-2.065,9.239-0.449,18.269-1.329,27.315
				c-0.274,2.813,1.42,6.727-3.984,6.503c-4.762-0.199-3.313-3.665-3.354-6.135c-0.147-8.306-0.077-16.611-0.053-24.914
				c0.015-5.498-1.118-11.705-6.526-12.558c-5.989-0.938-7.022,4.972-8.572,10.42c-2.61,9.162-0.795,18.238-1.58,27.3
				c-0.223,2.599,1.053,5.865-3.652,5.911c-4.678,0.042-3.693-3.153-3.722-5.819C281.291,531.488,281.339,524.786,281.339,518.078z"
				/>
			<path fill-rule="evenodd" clip-rule="evenodd" fill="#CC2036" d="M957.254,495.193c0-5.854,0-11.58,0.01-17.301
				c0-2.542-0.391-5.039,3.508-5.111c3.604-0.056,3.924,1.802,3.914,4.721c-0.061,20.76-0.017,41.524-0.053,62.286
				c-0.008,1.768-0.14,5.199-2.285,3.891c-5.794-3.537-9.728,1.943-14.609,2.164c-6.52,0.291-11.374-1.857-14.823-8.328
				c-5.607-10.509-4.908-21.681-2.081-31.992C934.768,491.139,941.53,489.201,957.254,495.193z M957.511,519.038
				c-1.187-3.926-2.879-8.227-3.738-12.7c-0.842-4.385-4.527-5.678-7.213-6.148c-3.455-0.607-6.218,3.465-7.238,6.26
				c-3.039,8.28-2.78,16.646,0.896,25.102c1.638,3.766,4.412,5.882,7.094,5.771c2.952-0.121,6.452-2.536,7.639-5.916
				C956.261,527.673,956.614,523.575,957.511,519.038z"/>
			<path fill-rule="evenodd" clip-rule="evenodd" fill="#CC2036" d="M507.252,542.606c0,5.741-0.081,10.842,0.032,15.936
				c0.063,2.938-0.35,4.819-3.944,4.679c-2.991-0.124-3.508-1.577-3.501-4.149c0.037-20.414,0.02-40.825,0.019-61.234
				c0-1.976,0.654-4.951,2.59-3.618c5.63,3.876,9.381-1.27,13.988-2.1c6.711-1.198,11.483,1.363,15.039,7.703
				c5.833,10.41,4.795,21.748,2.62,32.137C531.247,545.546,521.859,548.63,507.252,542.606z M527.479,516.832
				c-0.49-2.501-0.844-6.589-2.155-10.316c-1.181-3.368-4.587-5.463-7.649-5.932c-1.969-0.304-5.233,1.103-6.359,4.017
				c-2.1,5.448-4.817,11.02-3.882,16.918c1.03,6.508,1.775,15.328,9.751,15.678c7.003,0.309,8.257-7.199,9.113-13.593
				C526.518,521.958,527.786,520.259,527.479,516.832z"/>
			<path fill-rule="evenodd" clip-rule="evenodd" fill="#CC2036" d="M1223.917,518.276c1.01,5.77-1.188,12.652,1.568,19.627
				c2.407,6.107-3.529,7.953-6.459,5.633c-3.915-3.088-5.616-0.766-8.452,0.479c-5.688,2.514-11.568,3.491-17.215-0.151
				c-6.988-4.512-4.979-11.978-4.36-18.193c0.615-6.172,6.231-8.766,11.53-10.466c3.118-1.003,6.528-1.046,9.603-2.128
				c3.02-1.062,8.104-1.042,5.794-6.893c-1.711-4.304-4.605-7.29-9.638-5.98c-1.42,0.366-3.271,0.998-3.9,2.127
				c-2.407,4.264-5.685,6.303-10.331,4.983c-2.417-0.682-1.887-3.484-1.336-4.86c2.001-5.025,5.102-9.436,10.692-10.267
				c3.928-0.588,8.104-0.7,11.979,0.036c6.405,1.214,11.382,4.256,10.595,12.533
				C1223.592,508.873,1223.917,513.063,1223.917,518.276z M1215.926,520.967c-6.132,1.643-10.577,2.303-14.546,4.096
				c-2.349,1.056-5.946,2.574-4.669,6.762c1.054,3.466,3.727,5.6,6.946,6.193c5.898,1.086,14.287-9.101,12.817-15.093
				C1216.097,521.364,1215.234,520.988,1215.926,520.967z"/>
			<path fill-rule="evenodd" clip-rule="evenodd" fill="#CC2036" d="M677.625,518.36c0.955,5.797-1.083,12.675,1.574,19.652
				c2.393,6.268-4.037,7.826-6.52,5.528c-3.998-3.686-5.749-0.55-8.468,0.548c-5.764,2.33-11.572,3.44-17.216-0.286
				c-6.952-4.584-4.928-12.04-4.264-18.231c0.648-6.092,6.213-8.796,11.606-10.385c3.142-0.929,6.505-1.084,9.615-2.095
				c2.886-0.947,7.559-1.215,5.981-6.131c-1.44-4.482-4.396-8.293-10.031-6.704c-1.409,0.403-3.264,1.017-3.89,2.147
				c-2.392,4.337-5.75,6.117-10.348,4.907c-1.919-0.507-1.554-2.619-1.319-4.053c0.894-5.485,4.847-9.538,9.123-10.724
				c5.106-1.414,11.154-0.983,16.395,0.35c8.338,2.124,8.342,9.536,7.793,16.771C677.465,512.198,677.625,514.769,677.625,518.36z
				 M670.18,524.339c0.042-1.765-0.151-3.807-2.194-3.215c-5.04,1.471-10.316,2.728-14.814,5.345
				c-5.204,3.022-3.199,6.657,0.714,9.85c3.18,2.592,5.802,1.447,9.026,0.014C668.261,533.945,668.078,528.44,670.18,524.339z"/>
			<path fill-rule="evenodd" clip-rule="evenodd" fill="#CC2036" d="M586.886,518.268c1.024,5.767-1.199,12.652,1.564,19.626
				c2.414,6.082-3.456,7.957-6.445,5.642c-3.899-3.013-5.604-0.801-8.445,0.469c-5.685,2.536-11.569,3.491-17.213-0.132
				c-7.006-4.5-4.981-11.971-4.376-18.186c0.597-6.189,6.231-8.772,11.517-10.483c3.11-1.008,6.532-1.021,9.598-2.132
				c2.979-1.075,8.115-1.02,5.812-6.874c-1.699-4.314-4.6-7.294-9.64-6c-1.41,0.371-3.259,1.003-3.894,2.123
				c-2.413,4.266-5.681,6.312-10.329,4.999c-2.428-0.688-1.892-3.483-1.343-4.862c1.992-5.03,5.106-9.436,10.682-10.271
				c3.924-0.595,8.106-0.7,11.989,0.036c6.396,1.214,11.392,4.235,10.594,12.524C586.561,508.864,586.886,513.053,586.886,518.268z
				 M579.463,523.89c-0.018-2.051-0.365-3.464-3.173-2.476c-3.879,1.36-8.116,1.801-11.782,3.564
				c-2.554,1.227-6.469,2.696-4.396,7.452c1.783,4.101,4.726,6.581,9.002,5.38C575.643,535.974,578.23,530.458,579.463,523.89z"/>
			<path fill-rule="evenodd" clip-rule="evenodd" fill="#CC2036" d="M795.655,514.102c1.261,10.042-0.904,17.393,2.171,24.491
				c0.781,1.81,0.744,6.733-2.79,5.06c-7.097-3.37-12.562,1.694-18.808,2.214c-7.273,0.605-13.75-0.622-15.177-9.428
				c-1.853-11.414,2.411-18.892,11.446-21.264c3.182-0.835,6.442-1.284,9.65-2.012c2.577-0.578,5.59-1.012,6.421-4.029
				c0.816-2.982-1.265-5.717-3.208-7.172c-2.152-1.622-4.95-3.739-8.265-0.956c-1.805,1.521-3.923,2.243-5.252,4.751
				c-1.827,3.464-5.945,2.408-7.975,0.996c-2.074-1.447-1.558-4.782,0.283-7.473c5.669-8.252,22.391-10.412,29.273-3.288
				C799.332,502.11,794.513,510.068,795.655,514.102z M776.422,538.141c5.458,0.229,12.077-7.259,12.27-13.883
				c0.054-1.622,0.028-3.072-2.178-3.256c-4.881-0.413-18.534,6.633-17.896,9.639C769.468,534.668,772.223,537.424,776.422,538.141z
				"/>
			<path fill-rule="evenodd" clip-rule="evenodd" fill="#CC2036" d="M392.452,520.215c-0.644,3.635,0.777,8.009-1,12.403
				c-3.294,8.175-7.771,13.46-17.371,13.439c-9.463-0.021-14.983-4.464-17.258-13.276c-2.534-9.801-3.094-19.986,0.659-29.532
				c3.929-9.999,10.825-13.137,21.377-11.155c7.044,1.312,13.235,9.84,13.574,18.796
				C392.543,513.759,392.452,516.648,392.452,520.215z M385.044,519.512c-0.536-2.808-1.064-6.459-1.953-10.017
				c-1.203-4.786-4.195-9.112-8.752-9.331c-5.164-0.241-8.188,4.308-9.571,9.399c-0.401,1.479-0.039,3.169-0.416,4.655
				c-2.596,10.209,1.455,22.767,8.378,23.231c10.695,0.719,8.967-10.031,12.208-16.152
				C385.071,521.048,384.985,520.675,385.044,519.512z"/>
			<path fill-rule="evenodd" clip-rule="evenodd" fill="#CC2036" d="M191.994,545.851c-6.357,1.358-11.354-1.305-14.623-8.337
				c-1.425-3.067-2.988-6.64-0.443-8.404c2.62-1.819,6.246-1.002,8.21,3.148c2.166,4.575,5.668,6.803,11.057,5.07
				c3.109-1.001,4.127-3.625,5.117-5.878c1.291-2.934-1.89-4.584-3.646-5.807c-2.388-1.663-5.463-2.277-8.262-3.283
				c-11.203-4.033-14.707-10.628-11.446-21.604c2.1-7.081,10.387-10.94,19.735-8.506c3.227,0.835,6.635,1.965,8.102,6.5
				c1.011,3.133,2.87,6.446,0.13,8.331c-2.331,1.597-5.929,0.662-7.86-2.712c-1.68-2.938-3.667-5.063-7.597-3.604
				c-3.274,1.214-5.348,4.099-5.037,6.693c0.407,3.369,3.69,4.705,7.145,6.035c7.168,2.74,16.456,3.741,16.59,15.272
				C209.301,540.6,204.496,545.842,191.994,545.851z"/>
			<path fill-rule="evenodd" clip-rule="evenodd" fill="#CC2036" d="M427.692,545.722c-7.494,1.737-12.381-1.805-15.576-9.054
				c-1.238-2.802-2.357-6.079-0.009-7.635c2.508-1.671,6.659-1.017,7.789,2.445c1.068,3.288,3.249,4.194,5.611,5.507
				c4.875,2.695,7.521,0.071,10.091-3.963c3.155-4.955-1.388-6.175-3.609-7.876c-2.286-1.754-5.39-2.419-8.204-3.354
				c-11.68-3.868-13.376-9.453-9.398-22.53c2.283-7.508,13.375-9.676,21.76-5.568c2.43,1.196,3.594,2.636,4.788,5.089
				c1.502,3.077,2.943,6.424,0.127,8.307c-2.363,1.57-6.156,0.766-7.758-2.802c-1.431-3.189-3.759-4.614-6.903-3.897
				c-3.102,0.708-5.025,3.454-5.899,6.256c-0.907,2.915,2.064,4.651,3.916,5.771c2.48,1.508,5.652,1.729,8.452,2.729
				c9.398,3.364,13.34,9.275,11.249,19.373C442.391,542.862,436.587,546.972,427.692,545.722z"/>
			<path fill-rule="evenodd" clip-rule="evenodd" fill="#CC2036" d="M1055.461,545.722c-7.486,1.737-12.377-1.801-15.573-9.054
				c-1.239-2.802-2.357-6.073-0.011-7.635c2.506-1.671,6.663-1.017,7.789,2.445c1.07,3.28,3.252,4.194,5.607,5.507
				c4.872,2.695,7.523,0.078,10.101-3.963c3.153-4.96-1.393-6.175-3.616-7.876c-2.285-1.754-5.394-2.415-8.203-3.354
				c-11.66-3.87-13.388-9.388-9.401-22.53c2.286-7.511,13.38-9.676,21.76-5.563c2.437,1.19,3.597,2.63,4.793,5.083
				c1.507,3.077,2.942,6.424,0.124,8.307c-2.364,1.57-6.157,0.766-7.76-2.802c-1.427-3.189-3.758-4.614-6.9-3.897
				c-3.104,0.708-5.025,3.454-5.902,6.261c-0.904,2.91,2.074,4.646,3.924,5.767c2.482,1.508,5.653,1.729,8.453,2.729
				c9.399,3.368,13.334,9.271,11.242,19.371C1070.16,542.862,1064.357,546.972,1055.461,545.722z"/>
			<path fill-rule="evenodd" clip-rule="evenodd" fill="#CC2036" d="M260.965,519.751c-0.003,6.392,0.076,12.782-0.049,19.17
				c-0.039,1.938,0.162,6.311-2.298,4.686c-6.448-4.272-10.6,1.993-15.912,2.4c-8.726,0.671-12.674-4.109-13.067-11.931
				c-0.593-11.794-0.104-23.642-0.182-35.469c-0.018-2.939,0.357-4.758,3.943-4.694c3.915,0.067,3.324,2.618,3.51,5.128
				c0.799,10.657-1.734,21.477,1.751,32.052c1.19,3.602,2.781,6.925,6.378,6.724c3.288-0.184,5.272-3.526,6.456-6.828
				c3.508-9.813,1.487-20.041,2.139-30.07c0.172-2.612-2.016-6.763,3.463-6.959c5.504-0.201,3.718,3.897,3.802,6.614
				C261.098,506.96,260.965,513.358,260.965,519.751z"/>
			<path fill-rule="evenodd" clip-rule="evenodd" fill="#CC2036" d="M1018.359,519.751c0,6.392,0.08,12.782-0.046,19.17
				c-0.036,1.938,0.159,6.311-2.303,4.686c-6.442-4.272-10.596,1.993-15.913,2.4c-8.724,0.671-12.668-4.109-13.057-11.931
				c-0.594-11.794-0.106-23.642-0.188-35.469c-0.018-2.939,0.355-4.758,3.945-4.694c3.914,0.067,3.321,2.618,3.514,5.128
				c0.797,10.657-1.734,21.477,1.747,32.052c1.186,3.602,2.783,6.925,6.379,6.724c3.288-0.184,5.271-3.526,6.449-6.828
				c3.519-9.818,1.489-20.041,2.143-30.07c0.169-2.612-2.019-6.763,3.464-6.959c5.502-0.201,3.722,3.897,3.801,6.614
				C1018.491,506.96,1018.359,513.358,1018.359,519.751z"/>
			<path fill-rule="evenodd" clip-rule="evenodd" fill="#CC2036" d="M910.954,521.783c0,5.761-0.025,11.517,0.009,17.278
				c0.019,2.672,0.133,4.943-3.678,4.961c-3.765,0.014-3.756-2.161-3.748-4.897c0.046-9.279,0.142-18.561-0.042-27.835
				c-0.098-4.696-2.526-8.573-6.257-10.876c-2.646-1.63-5.845,1.017-6.811,2.845c-2.402,4.539-3.617,9.729-3.563,15.106
				c0.072,7.033-0.086,14.078,0.064,21.116c0.061,3.156-0.745,4.625-4.121,4.52c-3.154-0.098-3.34-1.9-3.34-4.328
				c0.027-13.761-0.009-27.521,0.044-41.274c0.009-1.729,0.329-5.396,1.984-4.108c6.407,4.935,10.542-2.287,15.937-2.321
				c8.534-0.048,13.079,3.69,13.477,12.541C911.167,510.251,910.963,516.021,910.954,521.783z"/>
			<path fill-rule="evenodd" clip-rule="evenodd" fill="#CC2036" d="M157.264,521.564c-0.002,4.794,0.318,9.628-0.123,14.381
				c-0.262,2.829,2.582,7.725-3.337,7.918c-6.887,0.226-3.616-5.439-3.782-8.367c-0.474-8.289,0.24-16.658-0.341-24.933
				c-0.328-4.688-2.668-10.145-7.579-10.283c-3.692-0.104-6.946,3.016-7.497,8.787c-0.403,4.217-1.373,8.536-1.407,12.911
				c-0.044,5.759-0.076,11.521,0.012,17.274c0.044,2.874-0.211,4.824-3.881,4.767c-3.888-0.064-3.542-2.524-3.542-5.091
				c0-13.433-0.028-26.876,0.036-40.31c0.009-1.691,0.26-5.432,1.771-4.273c6.415,4.951,10.579-2.179,15.931-2.343
				c8.883-0.288,13.412,3.777,13.709,13.24C157.405,510.676,157.265,516.123,157.264,521.564z"/>
			<path fill-rule="evenodd" clip-rule="evenodd" fill="#CC2036" d="M1099.839,475.687c0,4.544,0,8.37,0,12.2
				c0.009,3.104-0.787,6.771,4.287,6.14c2.421-0.299,3.217,1.181,3.11,3.47c-0.079,1.876,0.265,4.326-2.462,4.052
				c-6.291-0.634-4.883,3.915-4.917,7.465c-0.063,6.706-0.195,13.422,0.054,20.12c0.157,4.283,0.045,9.252,6.37,9.042
				c3.559-0.117,2.665,2.594,2.815,4.659c0.186,2.741-1.576,2.842-3.553,3.041c-9.17,0.922-14.095-1.945-13.253-11.565
				c0.699-7.919,0.354-15.963,0.045-23.938c-0.133-3.429,2.532-8.415-4.281-9.347c-1.93-0.27-1.921-5.941-0.175-6.237
				c7.085-1.193,4.535-6.545,4.383-10.189C1092.042,478.945,1094.364,476.402,1099.839,475.687z"/>
			<path fill-rule="evenodd" clip-rule="evenodd" fill="#CC2036" d="M742.448,508.338c0,9.917,0.044,19.832-0.037,29.746
				c-0.026,2.594,1.108,5.879-3.606,5.935c-4.685,0.049-3.738-3.133-3.747-5.807c-0.033-19.83-0.043-39.66,0.009-59.49
				c0.008-2.59-1.107-5.878,3.616-5.937c4.685-0.053,3.72,3.135,3.739,5.813C742.484,488.515,742.448,498.428,742.448,508.338z"/>
			<path fill-rule="evenodd" clip-rule="evenodd" fill="#CC2036" d="M101.708,509.359c0,9.593,0.044,19.188-0.029,28.78
				c-0.021,2.636,1.028,5.875-3.672,5.875c-4.703,0-3.67-3.245-3.675-5.875c-0.053-19.825-0.053-39.65-0.001-59.48
				c0.006-2.633-1.027-5.873,3.676-5.873c4.702,0,3.656,3.24,3.674,5.873C101.75,488.896,101.708,499.126,101.708,509.359z"/>
			<path fill-rule="evenodd" clip-rule="evenodd" fill="#CC2036" d="M607.26,518.191c0-2.868,0-5.734,0-8.602
				c0-14.702,3.561-18.012,17.494-17.659c4.476,0.107,4.763,2.012,4.837,5.687c0.09,4.564-2.085,4.201-5.233,3.731
				c-4.113-0.624-6.709,0.726-7.989,5.708c-2.646,10.306-1.243,20.684-1.728,31.017c-0.118,2.584,1.111,5.857-3.588,5.941
				c-4.647,0.083-3.749-3.057-3.773-5.753C607.222,531.571,607.26,524.882,607.26,518.191z"/>
			<path fill-rule="evenodd" clip-rule="evenodd" fill="#CC2036" d="M1125.772,518.707c0-3.181,0-6.372,0-9.559
				c0-14.813,2.56-17.263,16.991-17.161c3.74,0.025,5.503,0.622,5.368,5.123c-0.14,4.697-1.638,4.819-5.589,4.053
				c-3.986-0.77-6.513,1.212-7.733,6.313c-2.481,10.356-1.188,20.703-1.605,31.032c-0.114,2.951,0.338,5.697-4.064,5.507
				c-3.962-0.178-3.342-2.797-3.351-5.232C1125.744,532.091,1125.772,525.403,1125.772,518.707z"/>
			<path fill-rule="evenodd" clip-rule="evenodd" fill="#CC2036" d="M1170.21,519.139c0,6.391,0.025,12.787-0.007,19.186
				c-0.021,2.768,0.751,5.834-3.875,5.697c-3.877-0.119-3.514-2.546-3.514-5.101c-0.008-13.426,0.032-26.851-0.036-40.282
				c-0.01-2.896,0.257-4.799,3.905-4.735c3.888,0.068,3.526,2.539,3.526,5.092C1170.21,505.711,1170.21,512.423,1170.21,519.139z"/>
			<path fill-rule="evenodd" clip-rule="evenodd" fill="#CC2036" d="M859.099,519.917c0,6.396-0.027,12.786,0.015,19.183
				c0.021,2.7,0.083,4.92-3.711,4.923c-3.774,0.006-3.72-2.205-3.711-4.916c0.025-13.424,0.025-26.853,0-40.276
				c-0.009-2.702-0.079-4.924,3.702-4.926c3.785,0,3.741,2.206,3.72,4.915C859.072,505.851,859.099,512.886,859.099,519.917z"/>
			<path fill-rule="evenodd" clip-rule="evenodd" fill="#CC2036" d="M1166.427,482.427c-3.907,0.523-3.569-2.232-3.648-4.861
				c-0.081-2.857,0.183-4.815,3.834-4.787c3.829,0.028,3.58,2.352,3.623,4.999C1170.292,480.612,1170.115,483.026,1166.427,482.427z
				"/>
			<path fill-rule="evenodd" clip-rule="evenodd" fill="#CC2036" d="M855.699,482.437c-3.217,0.579-4.318-1.095-4.016-4.33
				c0.231-2.378-0.798-5.237,3.297-5.311c3.287-0.056,4.473,1.176,4.134,4.441C858.877,479.606,859.958,482.771,855.699,482.437z"/>
		</g>
	</g>
</g>
</svg>
